<?xml version="1.0" encoding="UTF-8"?>
<svg id="Layer_1" xmlns="http://www.w3.org/2000/svg" viewBox="0 0 229.84 229.84" width="24"
  height="24">
  <path
    d="m212.88,0H16.97C7.6,0,0,7.6,0,16.97v195.9c0,9.37,7.6,16.97,16.97,16.97h195.91c9.37,0,16.97-7.6,16.97-16.97V16.97C229.84,7.6,222.25,0,212.88,0ZM68.5,195.8h-34.55v-109.77h34.55v109.77Zm-17.28-124.98c-11,0-19.92-8.37-19.92-19.83s8.92-19.84,19.92-19.84,19.92,8.38,19.92,19.84-8.92,19.83-19.92,19.83Zm144.66,125.06h-34.55v-59.95c0-17.69-7.52-23.14-17.22-23.14-10.25,0-20.31,7.72-20.31,23.59v59.51h-34.55v-109.77h33.23v15.21h.44c3.34-6.76,15.01-18.29,32.84-18.29,19.28,0,40.12,11.44,40.12,44.97v67.89Z"
    stroke-width="0" />
</svg>