<?xml version="1.0" encoding="UTF-8"?>
<svg id="svg2" xmlns="http://www.w3.org/2000/svg" xmlns:xlink="http://www.w3.org/1999/xlink"
  viewBox="0 0 256 256" width="24" height="24">
  <defs>
    <linearGradient id="linear-gradient" x1="550.95" y1="-45.02" x2="799.27" y2="-258.67"
      gradientTransform="translate(-314.75 -18.28) scale(.56 -.57)" gradientUnits="userSpaceOnUse">
      <stop offset="0" stop-color="#5a9fd4" />
      <stop offset="1" stop-color="#306998" />
    </linearGradient>
    <linearGradient id="linear-gradient-2" x1="895.27" y1="-387.97" x2="806.6" y2="-262.51"
      gradientTransform="translate(-314.75 -18.28) scale(.56 -.57)" gradientUnits="userSpaceOnUse">
      <stop offset="0" stop-color="#ffd43b" />
      <stop offset="1" stop-color="#ffe873" />
    </linearGradient>
  </defs>
  <path id="path1948"
    d="m126.49,0c-10.44.05-20.41.94-29.18,2.49-25.84,4.57-30.54,14.12-30.54,31.75v23.28h61.07v7.76H43.85c-17.75,0-33.29,10.67-38.15,30.96C.09,119.5-.16,134.02,5.7,158.31c4.34,18.08,14.71,30.96,32.46,30.96h21v-27.9c0-20.16,17.44-37.94,38.15-37.94h61c16.98,0,30.54-13.98,30.54-31.04v-58.16c0-16.55-13.96-28.98-30.54-31.75C147.82.75,136.93-.05,126.49,0Zm-33.03,18.72c6.31,0,11.46,5.24,11.46,11.67s-5.15,11.6-11.46,11.6-11.46-5.19-11.46-11.6,5.13-11.67,11.46-11.67Z"
    fill="url(#linear-gradient)" stroke-width="0" />
  <path id="path1950"
    d="m196.46,65.28v27.12c0,21.03-17.83,38.72-38.15,38.72h-61c-16.71,0-30.54,14.3-30.54,31.04v58.16c0,16.55,14.39,26.29,30.54,31.04,19.33,5.68,37.87,6.71,61,0,15.38-4.45,30.54-13.41,30.54-31.04v-23.28h-61v-7.76h91.54c17.75,0,24.36-12.38,30.54-30.96,6.38-19.13,6.11-37.53,0-62.07-4.39-17.67-12.76-30.96-30.54-30.96h-22.92Zm-34.31,147.27c6.33,0,11.46,5.19,11.46,11.6s-5.13,11.67-11.46,11.67-11.46-5.24-11.46-11.67,5.15-11.6,11.46-11.6Z"
    fill="url(#linear-gradient-2)" stroke-width="0" />
</svg>