<?xml version="1.0" encoding="UTF-8"?>
<svg id="Layer_1" xmlns="http://www.w3.org/2000/svg" viewBox="0 0 2000 2000" width="24" height="24">
  <circle cx="999.82" cy="999.68" r="190.48" fill="#149eca" stroke-width="0" />
  <path
    d="m999.82,1475.87c-260.98,0-507.08-46.07-692.98-129.72C108.85,1257.06-.18,1134.01-.18,999.68s109.04-257.38,307.02-346.47c185.89-83.65,432-129.72,692.98-129.72s507.08,46.07,692.97,129.72c197.99,89.1,307.03,212.14,307.03,346.47s-109.04,257.38-307.03,346.47c-185.89,83.65-431.99,129.72-692.97,129.72Zm0-857.14c-125.59,0-247.32,11.05-361.81,32.83-109.75,20.89-208.02,50.67-292.09,88.5-80.57,36.25-145.9,79.62-188.94,125.42-41.09,43.71-61.92,88.87-61.92,134.21s20.83,90.49,61.92,134.21c43.04,45.79,108.38,89.16,188.94,125.42,84.07,37.83,182.34,67.6,292.09,88.5,114.49,21.79,236.22,32.83,361.81,32.83s247.32-11.04,361.8-32.83c109.75-20.89,208.02-50.67,292.09-88.5,80.57-36.25,145.91-79.62,188.95-125.42,41.09-43.71,61.92-88.87,61.92-134.21s-20.83-90.49-61.92-134.21c-43.04-45.79-108.38-89.16-188.95-125.42-84.07-37.83-182.34-67.6-292.09-88.5-114.48-21.79-236.21-32.83-361.8-32.83Z"
    fill="#149eca" stroke-width="0" />
  <path
    d="m1367.21,1899.75c-94.69,0-204.53-42.81-320.95-126.7-165.39-119.16-328.34-309.26-458.83-535.28-130.49-226.01-213.65-462.18-234.15-664.99-21.83-216.01,30.21-371.96,146.54-439.12,116.33-67.17,277.41-34.26,453.56,92.65,165.39,119.16,328.34,309.26,458.83,535.27,130.49,226.02,213.65,462.19,234.15,665,21.83,216.01-30.21,371.96-146.54,439.12-39.44,22.77-84.04,34.04-132.61,34.04ZM632.54,194.91c-32.14,0-60.61,7.08-85.1,21.22-39.27,22.67-67.95,63.29-85.27,120.73-18.13,60.17-23.02,138.44-14.14,226.34,9.27,91.72,32.62,191.71,69.41,297.21,38.38,110.04,89.67,220.98,152.46,329.75,62.79,108.77,133.23,208.66,209.35,296.92,72.96,84.6,147.89,154.82,222.68,208.71,71.68,51.65,141.91,86.54,203.08,100.93,58.4,13.72,107.92,9.19,147.18-13.48,39.26-22.67,67.95-63.29,85.26-120.72,18.14-60.17,23.03-138.44,14.14-226.34-9.27-91.72-32.62-191.72-69.41-297.21-38.37-110.04-89.67-220.99-152.46-329.75s-133.23-208.66-209.34-296.92c-72.96-84.6-147.89-154.82-222.68-208.71-71.69-51.65-141.91-86.54-203.08-100.92-21.98-5.16-42.7-7.74-62.08-7.74Z"
    fill="#149eca" stroke-width="0" />
  <path
    d="m632.43,1899.75c-48.58,0-93.16-11.27-132.61-34.04-116.33-67.17-168.38-223.12-146.54-439.12,20.5-202.81,103.66-438.98,234.15-665,130.49-226.01,293.44-416.11,458.83-535.27,176.15-126.91,337.23-159.82,453.57-92.65,116.33,67.17,168.38,223.11,146.54,439.12-20.5,202.81-103.66,438.98-234.15,664.99l-41.24-23.81,41.24,23.81c-130.49,226.02-293.44,416.12-458.83,535.28-116.42,83.88-226.27,126.7-320.95,126.7ZM1367.1,194.91c-19.39,0-40.1,2.58-62.08,7.74-61.18,14.38-131.4,49.28-203.08,100.92-74.79,53.89-149.72,124.11-222.68,208.71-76.12,88.26-146.55,188.15-209.35,296.92s-114.09,219.71-152.46,329.75c-36.78,105.49-60.14,205.48-69.41,297.21-8.88,87.9-3.99,166.17,14.14,226.34,17.31,57.44,46,98.06,85.27,120.72,39.26,22.67,88.78,27.2,147.19,13.48,61.17-14.38,131.4-49.28,203.08-100.93,74.79-53.89,149.72-124.11,222.68-208.71,76.11-88.25,146.55-188.15,209.34-296.92,62.79-108.76,114.09-219.71,152.46-329.75,36.79-105.49,60.14-205.48,69.41-297.21,8.88-87.9,4-166.17-14.14-226.34-17.31-57.44-46-98.06-85.26-120.73-24.49-14.14-52.97-21.22-85.1-21.22Z"
    fill="#149eca" stroke-width="0" />
</svg>